<mxfile host="app.diagrams.net" agent="Mozilla/5.0 (Macintosh; Intel Mac OS X 10_15_7) AppleWebKit/605.1.15 (KHTML, like Gecko) Version/18.1 Safari/605.1.15" version="26.2.8">
  <diagram name="Page-1" id="5f0bae14-7c28-e335-631c-24af17079c00">
    <mxGraphModel dx="1202" dy="728" grid="1" gridSize="10" guides="1" tooltips="1" connect="1" arrows="1" fold="1" page="1" pageScale="1" pageWidth="1100" pageHeight="850" background="none" math="0" shadow="0">
      <root>
        <mxCell id="0" />
        <mxCell id="1" parent="0" />
        <mxCell id="4ZiornDxbuaaKoVCHQuT-1" value="" style="rounded=0;whiteSpace=wrap;html=1;labelBackgroundColor=none;" vertex="1" parent="1">
          <mxGeometry x="40" y="40" width="160" height="230" as="geometry" />
        </mxCell>
        <mxCell id="4ZiornDxbuaaKoVCHQuT-6" value="" style="edgeStyle=orthogonalEdgeStyle;rounded=0;orthogonalLoop=1;jettySize=auto;html=1;labelBackgroundColor=none;fontColor=default;entryX=0.5;entryY=0;entryDx=0;entryDy=0;exitX=1;exitY=0.5;exitDx=0;exitDy=0;" edge="1" parent="1" source="4ZiornDxbuaaKoVCHQuT-2" target="4ZiornDxbuaaKoVCHQuT-11">
          <mxGeometry relative="1" as="geometry">
            <mxPoint x="240" y="70" as="sourcePoint" />
            <mxPoint x="670" y="30" as="targetPoint" />
            <Array as="points">
              <mxPoint x="240" y="70" />
              <mxPoint x="240" y="40" />
              <mxPoint x="790" y="40" />
            </Array>
          </mxGeometry>
        </mxCell>
        <mxCell id="4ZiornDxbuaaKoVCHQuT-2" value="src" style="text;html=1;align=center;verticalAlign=middle;whiteSpace=wrap;rounded=0;labelBackgroundColor=none;" vertex="1" parent="1">
          <mxGeometry x="40" y="55" width="160" height="30" as="geometry" />
        </mxCell>
        <mxCell id="4ZiornDxbuaaKoVCHQuT-11" value="pytest_async_alembic" style="swimlane;fontStyle=0;childLayout=stackLayout;horizontal=1;startSize=30;horizontalStack=0;resizeParent=1;resizeParentMax=0;resizeLast=0;collapsible=1;marginBottom=0;whiteSpace=wrap;html=1;labelBackgroundColor=none;" vertex="1" parent="1">
          <mxGeometry x="660" y="80" width="260" height="210" as="geometry">
            <mxRectangle x="660" y="80" width="160" height="30" as="alternateBounds" />
          </mxGeometry>
        </mxCell>
        <mxCell id="4ZiornDxbuaaKoVCHQuT-12" value="init.py &amp;nbsp; &amp;nbsp; &amp;nbsp; &amp;nbsp; &amp;nbsp; &amp;nbsp; &amp;nbsp; &amp;nbsp; # Export main classes" style="text;strokeColor=none;fillColor=none;align=left;verticalAlign=middle;spacingLeft=4;spacingRight=4;overflow=hidden;points=[[0,0.5],[1,0.5]];portConstraint=eastwest;rotatable=0;whiteSpace=wrap;html=1;labelBackgroundColor=none;" vertex="1" parent="4ZiornDxbuaaKoVCHQuT-11">
          <mxGeometry y="30" width="260" height="30" as="geometry" />
        </mxCell>
        <mxCell id="4ZiornDxbuaaKoVCHQuT-13" value="plugin.py &amp;nbsp; &amp;nbsp; &amp;nbsp; &amp;nbsp; &amp;nbsp; &amp;nbsp;# Pytest plugin" style="text;strokeColor=none;fillColor=none;align=left;verticalAlign=middle;spacingLeft=4;spacingRight=4;overflow=hidden;points=[[0,0.5],[1,0.5]];portConstraint=eastwest;rotatable=0;whiteSpace=wrap;html=1;labelBackgroundColor=none;" vertex="1" parent="4ZiornDxbuaaKoVCHQuT-11">
          <mxGeometry y="60" width="260" height="30" as="geometry" />
        </mxCell>
        <mxCell id="4ZiornDxbuaaKoVCHQuT-14" value="runner.py &amp;nbsp; &amp;nbsp; &amp;nbsp; &amp;nbsp; &amp;nbsp; # AsyncAlembicRunner" style="text;strokeColor=none;fillColor=none;align=left;verticalAlign=middle;spacingLeft=4;spacingRight=4;overflow=hidden;points=[[0,0.5],[1,0.5]];portConstraint=eastwest;rotatable=0;whiteSpace=wrap;html=1;labelBackgroundColor=none;" vertex="1" parent="4ZiornDxbuaaKoVCHQuT-11">
          <mxGeometry y="90" width="260" height="30" as="geometry" />
        </mxCell>
        <mxCell id="4ZiornDxbuaaKoVCHQuT-20" value="database.py &amp;nbsp; &amp;nbsp; &amp;nbsp;# Utilities for create/delete db" style="text;strokeColor=none;fillColor=none;align=left;verticalAlign=middle;spacingLeft=4;spacingRight=4;overflow=hidden;points=[[0,0.5],[1,0.5]];portConstraint=eastwest;rotatable=0;whiteSpace=wrap;html=1;labelBackgroundColor=none;" vertex="1" parent="4ZiornDxbuaaKoVCHQuT-11">
          <mxGeometry y="120" width="260" height="30" as="geometry" />
        </mxCell>
        <mxCell id="4ZiornDxbuaaKoVCHQuT-21" value="config.py &amp;nbsp; &amp;nbsp; &amp;nbsp; &amp;nbsp; &amp;nbsp; # Alembic configuration" style="text;strokeColor=none;fillColor=none;align=left;verticalAlign=middle;spacingLeft=4;spacingRight=4;overflow=hidden;points=[[0,0.5],[1,0.5]];portConstraint=eastwest;rotatable=0;whiteSpace=wrap;html=1;labelBackgroundColor=none;" vertex="1" parent="4ZiornDxbuaaKoVCHQuT-11">
          <mxGeometry y="150" width="260" height="30" as="geometry" />
        </mxCell>
        <mxCell id="4ZiornDxbuaaKoVCHQuT-22" value="exceptions.py &amp;nbsp; # Custom errors" style="text;strokeColor=none;fillColor=none;align=left;verticalAlign=middle;spacingLeft=4;spacingRight=4;overflow=hidden;points=[[0,0.5],[1,0.5]];portConstraint=eastwest;rotatable=0;whiteSpace=wrap;html=1;labelBackgroundColor=none;" vertex="1" parent="4ZiornDxbuaaKoVCHQuT-11">
          <mxGeometry y="180" width="260" height="30" as="geometry" />
        </mxCell>
        <mxCell id="4ZiornDxbuaaKoVCHQuT-26" value="" style="edgeStyle=orthogonalEdgeStyle;rounded=0;orthogonalLoop=1;jettySize=auto;html=1;" edge="1" parent="1" source="4ZiornDxbuaaKoVCHQuT-23" target="4ZiornDxbuaaKoVCHQuT-25">
          <mxGeometry relative="1" as="geometry" />
        </mxCell>
        <mxCell id="4ZiornDxbuaaKoVCHQuT-23" value="tests" style="text;html=1;align=center;verticalAlign=middle;whiteSpace=wrap;rounded=0;" vertex="1" parent="1">
          <mxGeometry x="40" y="85" width="160" height="30" as="geometry" />
        </mxCell>
        <mxCell id="4ZiornDxbuaaKoVCHQuT-25" value="" style="whiteSpace=wrap;html=1;" vertex="1" parent="1">
          <mxGeometry x="450" y="70" width="180" height="60" as="geometry" />
        </mxCell>
        <mxCell id="4ZiornDxbuaaKoVCHQuT-27" value="&amp;nbsp; &amp;nbsp;conftest.py &amp;nbsp; &amp;nbsp; &amp;nbsp; # Fixtures" style="text;html=1;align=left;verticalAlign=middle;whiteSpace=wrap;rounded=0;" vertex="1" parent="1">
          <mxGeometry x="450" y="70" width="180" height="30" as="geometry" />
        </mxCell>
        <mxCell id="4ZiornDxbuaaKoVCHQuT-28" value="&amp;nbsp; &amp;nbsp;test_plugin.py &amp;nbsp;# Tests&amp;nbsp;" style="text;html=1;align=left;verticalAlign=middle;whiteSpace=wrap;rounded=0;" vertex="1" parent="1">
          <mxGeometry x="450" y="100" width="180" height="30" as="geometry" />
        </mxCell>
        <mxCell id="4ZiornDxbuaaKoVCHQuT-33" style="edgeStyle=orthogonalEdgeStyle;rounded=0;orthogonalLoop=1;jettySize=auto;html=1;entryX=0.5;entryY=0;entryDx=0;entryDy=0;" edge="1" parent="1" source="4ZiornDxbuaaKoVCHQuT-29" target="4ZiornDxbuaaKoVCHQuT-32">
          <mxGeometry relative="1" as="geometry" />
        </mxCell>
        <mxCell id="4ZiornDxbuaaKoVCHQuT-29" value="examples" style="text;html=1;align=center;verticalAlign=middle;whiteSpace=wrap;rounded=0;" vertex="1" parent="1">
          <mxGeometry x="40" y="115" width="160" height="30" as="geometry" />
        </mxCell>
        <mxCell id="4ZiornDxbuaaKoVCHQuT-32" value="" style="rounded=0;whiteSpace=wrap;html=1;" vertex="1" parent="1">
          <mxGeometry x="310" y="150" width="150" height="90" as="geometry" />
        </mxCell>
        <mxCell id="4ZiornDxbuaaKoVCHQuT-35" value="sqlite_async.py" style="text;html=1;align=center;verticalAlign=middle;whiteSpace=wrap;rounded=0;" vertex="1" parent="1">
          <mxGeometry x="310" y="150" width="150" height="30" as="geometry" />
        </mxCell>
        <mxCell id="4ZiornDxbuaaKoVCHQuT-37" value="postgres_schema.py" style="text;html=1;align=center;verticalAlign=middle;whiteSpace=wrap;rounded=0;" vertex="1" parent="1">
          <mxGeometry x="310" y="180" width="150" height="30" as="geometry" />
        </mxCell>
        <mxCell id="4ZiornDxbuaaKoVCHQuT-38" value="&amp;lt;etc.&amp;gt;" style="text;html=1;align=center;verticalAlign=middle;whiteSpace=wrap;rounded=0;" vertex="1" parent="1">
          <mxGeometry x="310" y="210" width="150" height="30" as="geometry" />
        </mxCell>
        <mxCell id="4ZiornDxbuaaKoVCHQuT-40" style="edgeStyle=orthogonalEdgeStyle;rounded=0;orthogonalLoop=1;jettySize=auto;html=1;entryX=0.5;entryY=0;entryDx=0;entryDy=0;" edge="1" parent="1" source="4ZiornDxbuaaKoVCHQuT-39" target="4ZiornDxbuaaKoVCHQuT-43">
          <mxGeometry relative="1" as="geometry">
            <mxPoint x="280" y="250" as="targetPoint" />
          </mxGeometry>
        </mxCell>
        <mxCell id="4ZiornDxbuaaKoVCHQuT-39" value="docs" style="text;html=1;align=center;verticalAlign=middle;whiteSpace=wrap;rounded=0;" vertex="1" parent="1">
          <mxGeometry x="40" y="150" width="160" height="30" as="geometry" />
        </mxCell>
        <mxCell id="4ZiornDxbuaaKoVCHQuT-43" value="index.md" style="rounded=0;whiteSpace=wrap;html=1;" vertex="1" parent="1">
          <mxGeometry x="220" y="250" width="120" height="30" as="geometry" />
        </mxCell>
        <mxCell id="4ZiornDxbuaaKoVCHQuT-45" value="pyproject.toml" style="text;html=1;align=center;verticalAlign=middle;whiteSpace=wrap;rounded=0;" vertex="1" parent="1">
          <mxGeometry x="40" y="180" width="160" height="30" as="geometry" />
        </mxCell>
        <mxCell id="4ZiornDxbuaaKoVCHQuT-46" value="LICENSE" style="text;html=1;align=center;verticalAlign=middle;whiteSpace=wrap;rounded=0;" vertex="1" parent="1">
          <mxGeometry x="40" y="210" width="160" height="30" as="geometry" />
        </mxCell>
        <mxCell id="4ZiornDxbuaaKoVCHQuT-47" value="README.md" style="text;html=1;align=center;verticalAlign=middle;whiteSpace=wrap;rounded=0;" vertex="1" parent="1">
          <mxGeometry x="40" y="240" width="160" height="30" as="geometry" />
        </mxCell>
      </root>
    </mxGraphModel>
  </diagram>
</mxfile>
